<?xml version="1.0" encoding="UTF-8" standalone="no"?>
<!DOCTYPE svg PUBLIC "-//W3C//DTD SVG 1.1//EN"
 "http://www.w3.org/Graphics/SVG/1.1/DTD/svg11.dtd">
<!-- Generated by graphviz version 2.40.1 (20161225.0304)
 -->
<!-- Title: %3 Pages: 1 -->
<svg width="195pt" height="161pt"
 viewBox="0.00 0.00 194.50 161.00" xmlns="http://www.w3.org/2000/svg" xmlns:xlink="http://www.w3.org/1999/xlink">
<g id="graph0" class="graph" transform="scale(1 1) rotate(0) translate(4 157)">
<title>%3</title>
<polygon fill="#ffffff" stroke="transparent" points="-4,4 -4,-157 190.5,-157 190.5,4 -4,4"/>
<!-- robot -->
<g id="node1" class="node">
<title>robot</title>
<polygon fill="none" stroke="#000000" points="0,-83.5 0,-152.5 92,-152.5 92,-83.5 0,-83.5"/>
<text text-anchor="middle" x="46" y="-137.3" font-family="Times,serif" font-size="14.00" fill="#000000">turtlebot2i</text>
<polyline fill="none" stroke="#000000" points="0,-129.5 92,-129.5 "/>
<text text-anchor="middle" x="46" y="-114.3" font-family="Times,serif" font-size="14.00" fill="#000000">camera_rgb</text>
<polyline fill="none" stroke="#000000" points="0,-106.5 92,-106.5 "/>
<text text-anchor="middle" x="46" y="-91.3" font-family="Times,serif" font-size="14.00" fill="#000000">velocity: 0.00</text>
</g>
<!-- warehouse -->
<g id="node2" class="node">
<title>warehouse</title>
<polygon fill="none" stroke="#000000" points="110,-100 110,-136 184,-136 184,-100 110,-100"/>
<text text-anchor="middle" x="147" y="-114.3" font-family="Times,serif" font-size="14.00" fill="#000000">warehouse</text>
</g>
<!-- floor -->
<g id="node3" class="node">
<title>floor</title>
<polygon fill="none" stroke="#000000" points="107.5,-.5 107.5,-46.5 186.5,-46.5 186.5,-.5 107.5,-.5"/>
<text text-anchor="middle" x="147" y="-31.3" font-family="Times,serif" font-size="14.00" fill="#000000">floor</text>
<polyline fill="none" stroke="#000000" points="107.5,-23.5 186.5,-23.5 "/>
<text text-anchor="middle" x="147" y="-8.3" font-family="Times,serif" font-size="14.00" fill="#000000">size: 25*25</text>
</g>
<!-- warehouse&#45;&gt;floor -->
<g id="edge1" class="edge">
<title>warehouse&#45;&gt;floor</title>
<path fill="none" stroke="#000000" d="M147,-99.7794C147,-87.6087 147,-71.2426 147,-56.7906"/>
<polygon fill="#000000" stroke="#000000" points="150.5001,-56.6929 147,-46.6929 143.5001,-56.693 150.5001,-56.6929"/>
</g>
</g>
</svg>
